
        <svg xmlns="http://www.w3.org/2000/svg" xmlns:xlink="http://www.w3.org/1999/xlink" version="1.1" width="3162.244536842517" 
        height="1511.1684659523762" viewBox="0 0 3162.244536842517 1511.1684659523762">
			
			<g transform="scale(8.112226842125853) translate(10, 10)">
				<defs id="SvgjsDefs1235"><linearGradient id="SvgjsLinearGradient1242"><stop id="SvgjsStop1243" stop-color="#8f5e25" offset="0"></stop><stop id="SvgjsStop1244" stop-color="#fbf4a1" offset="0.5"></stop><stop id="SvgjsStop1245" stop-color="#8f5e25" offset="1"></stop></linearGradient><linearGradient id="SvgjsLinearGradient1246"><stop id="SvgjsStop1247" stop-color="#8f5e25" offset="0"></stop><stop id="SvgjsStop1248" stop-color="#fbf4a1" offset="0.5"></stop><stop id="SvgjsStop1249" stop-color="#8f5e25" offset="1"></stop></linearGradient><linearGradient id="SvgjsLinearGradient1250"><stop id="SvgjsStop1251" stop-color="#8f5e25" offset="0"></stop><stop id="SvgjsStop1252" stop-color="#fbf4a1" offset="0.5"></stop><stop id="SvgjsStop1253" stop-color="#8f5e25" offset="1"></stop></linearGradient></defs><g id="SvgjsG1236" featureKey="symbolFeature-0" transform="matrix(0.7592801260602355,0,0,0.7592801260602355,-0.000001448211910362693,34.44431851953263)" fill="url(#SvgjsLinearGradient1242)"><title xmlns="http://www.w3.org/2000/svg">Modern Business 6 solid</title><path xmlns="http://www.w3.org/2000/svg" d="M63.99091,32A13,13,0,1,0,50.99237,19,13.01431,13.01431,0,0,0,63.99091,32Z"></path><path xmlns="http://www.w3.org/2000/svg" d="M36.82355,63.24628a16.926,16.926,0,0,1,2.91913-19.40643,15.86746,15.86746,0,0,1,22.81824,0,2.057,2.057,0,0,0,2.86053,0,15.86689,15.86689,0,0,1,22.81775,0,16.90373,16.90373,0,0,1,0,23.48438l-4.18091,4.2785a8.00654,8.00654,0,0,0,2.04736-.3078,19.64265,19.64265,0,0,1,4.67743-.85126l.31708-.32452a20.927,20.927,0,0,0,0-29.07422,19.85774,19.85774,0,0,0-27.10925-1.333,19.8565,19.8565,0,0,0-27.10828,1.333,20.93415,20.93415,0,0,0-3.90692,23.37952Q34.893,63.74036,36.82355,63.24628Z"></path><path xmlns="http://www.w3.org/2000/svg" d="M127.71716,83.48828c-1.11414-2.55273-4.94281-2.76172-6.21808-2.40918-.14447.04-.47162.084-.81824.13086-1.94025.25977-5.97882.80078-14.13806,4.84863-10.038,4.98047-20.818,9.9209-32.52661,10.85254a22.17765,22.17765,0,0,1-17.58252-6.28125c-.73083-1.42676-.7533-2.24707-.53851-2.52051.80121-1.02148,5.55212-1.61523,15.32056.92676,13.24854,3.66895,20.08661-2.92871,20.942-3.82715,2.54663-2.34766,5.69177-5.7793,4.02887-8.69727-1.46564-2.56934-5.56873-2.4043-8.9248-1.3877-3.38824,1.02344-7.05.28125-10.18439-.583-3.3678-.92871-6.73846-2.207-9.99786-3.44434a84.45627,84.45627,0,0,0-14.63409-4.54785c-8.52594-1.56543-17.15.1748-25.63336,5.16992A51.42527,51.42527,0,0,0,9.606,88.05469C.75342,101.85254-.44128,112.32227.1153,118.67676a3.58975,3.58975,0,0,0,2.74286,3.21191,3.77227,3.77227,0,0,0,4.0835-1.62207,7.23883,7.23883,0,0,0,1.3114-3.001c.04883-.2207.10742-.48242.18945-.81348a15.226,15.226,0,0,1,6.55542-9.21875l.27094-.14648c4.40186-2.44141,8.48682-.72168,17.30859,3.40234,3.74323,1.75,8.40192,3.92773,14.097,6.08691,26.00684,8.91406,44.20892-1.95605,55.63928-10.9043,9.47644-7.41895,20.4-14.80957,20.43909-14.83789C124.51343,89.75,129.19061,86.86914,127.71716,83.48828Z"></path></g><g id="SvgjsG1237" featureKey="nameFeature-0" transform="matrix(4.162242571593341,0,0,4.162242571593341,106.27182231214942,-51.541424445895366)" fill="url(#SvgjsLinearGradient1246)"><path d="M30.449 41.4453 l-2.5781 0.82031 l-3.9844 -4.1992 c-2.207 1.5039 -4.9023 2.3047 -7.832 2.3047 c-7.5586 0 -13.477 -5.2344 -13.477 -14.004 c0 -8.75 5.918 -13.984 13.477 -13.984 c7.5 0 13.457 5.2344 13.457 13.984 c0 4.3164 -1.4453 7.7539 -3.7891 10.156 z M5.2734 26.367 c0 7.3633 4.8047 11.445 10.781 11.445 c5.957 0 10.723 -4.082 10.723 -11.445 c0 -7.2656 -4.7656 -11.328 -10.723 -11.328 c-5.9766 0 -10.781 4.0625 -10.781 11.328 z M51.55890625 40.37109 c-7.5391 0 -13.438 -5.2344 -13.438 -14.004 c0 -8.75 5.8984 -13.984 13.438 -13.984 c5.1758 0 9.5703 2.5 11.758 6.875 l-2.4609 1.0938 c-1.8164 -3.4375 -5.2734 -5.3125 -9.2969 -5.3125 c-5.957 0 -10.742 4.0625 -10.742 11.328 c0 7.2852 4.7852 11.348 10.742 11.348 c4.0234 0 7.4805 -1.875 9.2969 -5.3125 l2.4609 1.0938 c-2.1875 4.375 -6.582 6.875 -11.758 6.875 z"></path></g><g id="SvgjsG1238" featureKey="sloganFeature-0" transform="matrix(1.5553901795280627,0,0,1.5553901795280627,115.40525915025098,134.87124451801495)" fill="url(#SvgjsLinearGradient1250)"><path d="M8.0566 20.18555 c-4.0039 0 -7.0313 -2.7344 -7.0313 -7.1582 c0 -4.4043 3.0273 -7.1484 7.0313 -7.1484 c2.9297 0 5.332 1.4844 6.377 3.9746 l-2.1777 0.83008 c-0.72266 -1.6699 -2.3047 -2.627 -4.1992 -2.627 c-2.6367 0 -4.6973 1.8359 -4.6973 4.9707 c0 3.1543 2.0605 4.9805 4.6973 4.9805 c1.8945 0 3.4766 -0.94727 4.1992 -2.6172 l2.1777 0.83008 c-1.0449 2.4902 -3.4473 3.9648 -6.377 3.9648 z M30.99091015625 20 l-1.1035 -3.0957 l-6.084 0 l-1.0938 3.0957 l-2.4121 0 l5.127 -13.926 l2.8418 0 l5.127 13.926 l-2.4023 0 z M24.51611015625 14.9023 l4.668 0 l-2.334 -6.582 z M48.0068765625 20 l-3.6133 -6.2109 l-1.5039 0 l0 6.2109 l-2.334 0 l0 -13.926 l4.834 0 c3.0176 0 4.3457 1.8066 4.3457 4.043 c0 1.9434 -1.1523 3.252 -2.998 3.584 l4.0137 6.2988 l-2.7441 0 z M42.8896765625 8.047 l0 4.0137 l2.1582 0 c1.709 0 2.4414 -0.80078 2.4414 -1.9922 c0 -1.1816 -0.73242 -2.0215 -2.4414 -2.0215 l-2.1582 0 z M65.81393984375 8.154 l-5.4102 0 l0 3.8574 l4.7852 0 l0 2.0605 l-4.7852 0 l0 3.8379 l5.4102 0 l0 2.0898 l-7.7734 0 l0 -13.926 l7.7734 0 l0 2.0801 z M95.55906640625 20 l-2.6172 0 l-1.0156 -1.3086 c-1.2793 0.9375 -2.8418 1.5039 -4.541 1.5039 c-2.6563 0 -4.668 -1.3672 -4.668 -3.9258 c0 -2.0508 1.2988 -3.0566 3.75 -4.5996 l-0.019531 -0.019531 c-1.0352 -1.3379 -1.4453 -2.1387 -1.4453 -3.0176 c0 -0.88867 0.39063 -1.5723 1.0254 -2.041 c0.61523 -0.46875 1.4844 -0.72266 2.4512 -0.72266 c2.0801 0 3.5254 1.1035 3.5254 2.793 c0 1.2695 -0.81055 2.2363 -2.7246 3.3984 l2.8516 3.6035 c0.78125 -1.1328 1.2207 -2.4805 1.2207 -3.6914 l2.0605 0 c0 1.9434 -0.74219 3.8477 -1.9922 5.3223 z M87.50246640625 7.773 c-0.22461 0.21484 -0.36133 0.53711 -0.36133 0.92773 c0 0.55664 0.27344 0.95703 0.9375 1.8359 l0.16602 0.21484 c1.1426 -0.71289 1.7285 -1.3672 1.7285 -2.1094 c0 -0.79102 -0.66406 -1.25 -1.4355 -1.25 c-0.41016 0 -0.77148 0.12695 -1.0352 0.38086 z M87.47316640625 18.3203 c1.2402 0 2.3535 -0.44922 3.2617 -1.1621 l-3.1738 -4.0723 c-1.6699 1.0352 -2.7441 1.7285 -2.7441 3.125 c0 1.416 1.123 2.1094 2.6563 2.1094 z M113.38038359375 20 l0 -13.926 l2.334 0 l0 13.926 l-2.334 0 z M132.105434375 6.074 l0 2.0801 l-3.4375 0 l0 11.846 l-2.3242 0 l0 -11.846 l-3.4473 0 l0 -2.0801 l9.209 0 z"></path></g>
			</g>
		</svg>
	